<svg width="1440" height="767" viewBox="0 0 1440 767" fill="none" xmlns="http://www.w3.org/2000/svg">
<g clip-path="url(#clip0_3968_51680)">
<rect width="1440" height="767" fill="url(#paint0_linear_3968_51680)"/>
<path d="M720 -237C864.559 -237 982 -118.943 982 27C982 172.943 864.559 291 720 291C575.441 291 458 172.943 458 27C458 -118.943 575.441 -237 720 -237Z" stroke="#AB0448" stroke-opacity="0.35" stroke-width="42"/>
<path d="M720 -328C914.825 -328 1073 -168.969 1073 27.5C1073 223.969 914.825 383 720 383C525.175 383 367 223.969 367 27.5C367 -168.969 525.175 -328 720 -328Z" stroke="#AB0448" stroke-opacity="0.25" stroke-width="42"/>
<circle cx="719.5" cy="28.5" r="131.5" fill="#AB0448" fill-opacity="0.9"/>
<path d="M719.5 -160C822.359 -160 906 -75.9724 906 28C906 131.972 822.359 216 719.5 216C616.641 216 533 131.972 533 28C533 -75.9724 616.641 -160 719.5 -160Z" stroke="#AB0448" stroke-opacity="0.59" stroke-width="42"/>
<g clip-path="url(#clip1_3968_51680)">
<path d="M247.158 563.024C142.685 467.079 38.8558 523.047 0 563.024V548.532C34.9117 508.389 133.22 452.188 247.158 548.532C361.096 644.877 463.494 586.011 500.45 544.535C541.643 506.223 646.817 452.588 737.967 544.535C829.117 636.482 931.954 582.846 971.978 544.535C1007.47 504.891 1102.04 449.389 1196.35 544.535C1290.65 639.68 1398.08 584.178 1440 544.535V563.024C1399.68 599.503 1294.51 650.574 1196.35 563.024C1098.19 475.474 1005.87 526.545 971.978 563.024C931.808 598.004 828.767 646.976 737.967 563.024C647.167 479.072 541.789 528.044 500.45 563.024C459.55 603.001 351.63 658.969 247.158 563.024Z" fill="#B0034A" fill-opacity="0.25"/>
<path d="M247.158 610.024C142.685 514.079 38.8558 570.047 0 610.024V595.532C34.9117 555.389 133.22 499.188 247.158 595.532C361.096 691.877 463.494 633.011 500.45 591.535C541.643 553.223 646.817 499.588 737.967 591.535C829.117 683.482 931.954 629.846 971.978 591.535C1007.47 551.891 1102.04 496.389 1196.35 591.535C1290.65 686.68 1398.08 631.178 1440 591.535V610.024C1399.68 646.503 1294.51 697.574 1196.35 610.024C1098.19 522.474 1005.87 573.545 971.978 610.024C931.808 645.004 828.767 693.976 737.967 610.024C647.167 526.072 541.789 575.044 500.45 610.024C459.55 650.001 351.63 705.969 247.158 610.024Z" fill="#B0034A" fill-opacity="0.35"/>
<path d="M247.158 657.024C142.685 561.079 38.8558 617.047 0 657.024V642.532C34.9117 602.389 133.22 546.188 247.158 642.532C361.096 738.877 463.494 680.011 500.45 638.535C541.643 600.223 646.817 546.588 737.967 638.535C829.117 730.482 931.954 676.846 971.978 638.535C1007.47 598.891 1102.04 543.389 1196.35 638.535C1290.65 733.68 1398.08 678.178 1440 638.535V657.024C1399.68 693.503 1294.51 744.574 1196.35 657.024C1098.19 569.474 1005.87 620.545 971.978 657.024C931.808 692.004 828.767 740.976 737.967 657.024C647.167 573.072 541.789 622.044 500.45 657.024C459.55 697.001 351.63 752.969 247.158 657.024Z" fill="#B0034A" fill-opacity="0.45"/>
<path d="M247.158 704.024C142.685 608.079 38.8558 664.047 0 704.024V689.532C34.9117 649.389 133.22 593.188 247.158 689.532C361.096 785.877 463.494 727.011 500.45 685.535C541.643 647.223 646.817 593.588 737.967 685.535C829.117 777.482 931.954 723.846 971.978 685.535C1007.47 645.891 1102.04 590.389 1196.35 685.535C1290.65 780.68 1398.08 725.178 1440 685.535V704.024C1399.68 740.503 1294.51 791.574 1196.35 704.024C1098.19 616.474 1005.87 667.545 971.978 704.024C931.808 739.004 828.767 787.976 737.967 704.024C647.167 620.072 541.789 669.044 500.45 704.024C459.55 744.001 351.63 799.969 247.158 704.024Z" fill="#B0034A" fill-opacity="0.55"/>
<path d="M247.158 751.024C142.685 655.079 38.8558 711.047 0 751.024V736.532C34.9117 696.389 133.22 640.188 247.158 736.532C361.096 832.877 463.494 774.011 500.45 732.535C541.643 694.223 646.817 640.588 737.967 732.535C829.117 824.482 931.954 770.846 971.978 732.535C1007.47 692.891 1102.04 637.389 1196.35 732.535C1290.65 827.68 1398.08 772.178 1440 732.535V751.024C1399.68 787.503 1294.51 838.574 1196.35 751.024C1098.19 663.474 1005.87 714.545 971.978 751.024C931.808 786.004 828.767 834.976 737.967 751.024C647.167 667.072 541.789 716.044 500.45 751.024C459.55 791.001 351.63 846.969 247.158 751.024Z" fill="#B0034A" fill-opacity="0.65"/>
<path d="M247.158 798.024C142.685 702.079 38.8558 758.047 0 798.024V783.532C34.9117 743.389 133.22 687.188 247.158 783.532C361.096 879.877 463.494 821.011 500.45 779.535C541.643 741.223 646.817 687.588 737.967 779.535C829.117 871.482 931.954 817.846 971.978 779.535C1007.47 739.891 1102.04 684.389 1196.35 779.535C1290.65 874.68 1398.08 819.178 1440 779.535V798.024C1399.68 834.503 1294.51 885.574 1196.35 798.024C1098.19 710.474 1005.87 761.545 971.978 798.024C931.808 833.004 828.767 881.976 737.967 798.024C647.167 714.072 541.789 763.044 500.45 798.024C459.55 838.001 351.63 893.969 247.158 798.024Z" fill="#B0034A" fill-opacity="0.75"/>
</g>
</g>
<defs>
<linearGradient id="paint0_linear_3968_51680" x1="70" y1="92.4546" x2="284.963" y2="593.189" gradientUnits="userSpaceOnUse">
<stop stop-color="#CE0758"/>
<stop offset="1" stop-color="#9D0543"/>
</linearGradient>
<clipPath id="clip0_3968_51680">
<rect width="1440" height="767" fill="white"/>
</clipPath>
<clipPath id="clip1_3968_51680">
<rect width="1440" height="275" fill="white" transform="translate(0 492)"/>
</clipPath>
</defs>
</svg>
